<svg width="33" height="32" viewBox="0 0 33 32" fill="none" xmlns="http://www.w3.org/2000/svg">
<path d="M8.47498 24.9209C9.22736 23.4389 10.3754 22.1942 11.7919 21.3248C13.2084 20.4553 14.8379 19.9951 16.5 19.9951C18.162 19.9951 19.7916 20.4553 21.208 21.3248C22.6245 22.1942 23.7726 23.4389 24.525 24.9209" stroke="#98A2B3" stroke-width="1.5" stroke-linecap="round" stroke-linejoin="round"/>
<path d="M16.5 28C23.1274 28 28.5 22.6274 28.5 16C28.5 9.37258 23.1274 4 16.5 4C9.87258 4 4.5 9.37258 4.5 16C4.5 22.6274 9.87258 28 16.5 28Z" stroke="#98A2B3" stroke-width="1.5" stroke-linecap="round" stroke-linejoin="round"/>
<path d="M16.5 20C19.2614 20 21.5 17.7614 21.5 15C21.5 12.2386 19.2614 10 16.5 10C13.7386 10 11.5 12.2386 11.5 15C11.5 17.7614 13.7386 20 16.5 20Z" stroke="#98A2B3" stroke-width="1.5" stroke-linecap="round" stroke-linejoin="round"/>
</svg>
