<svg width="24" height="24" viewBox="0 0 24 24" fill="none" xmlns="http://www.w3.org/2000/svg">
<path d="M23.25 10.6875H20.5369L16.0312 4.47846C15.913 4.31622 15.7592 4.18326 15.5816 4.08979C15.4039 3.99633 15.2072 3.94486 15.0066 3.93933C14.8059 3.93381 14.6067 3.97438 14.4241 4.05793C14.2416 4.14148 14.0807 4.26578 13.9537 4.42127L12.7434 5.82002C12.7386 5.8249 12.7342 5.83024 12.7303 5.83596C12.6425 5.94512 12.5312 6.03319 12.4049 6.0937C12.2785 6.15421 12.1401 6.18563 12 6.18563C11.8599 6.18563 11.7215 6.15421 11.5951 6.0937C11.4688 6.03319 11.3575 5.94512 11.2697 5.83596C11.2658 5.83024 11.2614 5.8249 11.2566 5.82002L10.05 4.42127C9.9231 4.26508 9.76198 4.14016 9.57909 4.05617C9.3962 3.97218 9.19645 3.93137 8.99528 3.9369C8.79411 3.94242 8.5969 3.99414 8.4189 4.08805C8.2409 4.18195 8.08688 4.31553 7.96875 4.47846L3.46312 10.6875H0.75C0.600816 10.6875 0.457742 10.7468 0.352252 10.8523C0.246763 10.9578 0.1875 11.1008 0.1875 11.25C0.1875 11.3992 0.246763 11.5423 0.352252 11.6478C0.457742 11.7533 0.600816 11.8125 0.75 11.8125H23.25C23.3992 11.8125 23.5423 11.7533 23.6477 11.6478C23.7532 11.5423 23.8125 11.3992 23.8125 11.25C23.8125 11.1008 23.7532 10.9578 23.6477 10.8523C23.5423 10.7468 23.3992 10.6875 23.25 10.6875ZM8.88281 5.1394C8.89985 5.11659 8.92185 5.09796 8.94716 5.08492C8.97247 5.07188 9.00041 5.06478 9.02887 5.06415C9.05733 5.06351 9.08556 5.06937 9.11142 5.08127C9.13728 5.09317 9.16009 5.11081 9.17813 5.13284L9.19219 5.14877L10.3978 6.54752C10.5905 6.78691 10.8345 6.97994 11.1119 7.11235C11.3892 7.24476 11.6927 7.31317 12 7.31252C12.3073 7.31317 12.6108 7.24476 12.8881 7.11235C13.1655 6.97994 13.4095 6.78691 13.6022 6.54752L14.8125 5.14877L14.8266 5.13284C14.8446 5.11081 14.8674 5.09317 14.8933 5.08127C14.9191 5.06937 14.9474 5.06351 14.9758 5.06415C15.0043 5.06478 15.0322 5.07188 15.0575 5.08492C15.0828 5.09796 15.1048 5.11659 15.1219 5.1394L19.1531 10.6875H4.85344L8.88281 5.1394ZM16.875 13.6875C16.0621 13.6875 15.2799 13.9982 14.6885 14.5558C14.097 15.1135 13.7409 15.876 13.6931 16.6875H10.3069C10.2597 15.8928 9.91687 15.1444 9.34576 14.5898C8.77465 14.0351 8.01664 13.7142 7.22085 13.6902C6.42507 13.6663 5.64913 13.941 5.0457 14.4603C4.44227 14.9797 4.05503 15.706 3.96017 16.4965C3.86532 17.287 4.06971 18.0843 4.53314 18.7317C4.99657 19.3791 5.68548 19.8296 6.46433 19.9946C7.24319 20.1596 8.0556 20.0272 8.74173 19.6233C9.42786 19.2195 9.93803 18.5735 10.1719 17.8125H13.8281C14.0016 18.3764 14.3282 18.881 14.7715 19.2703C15.2149 19.6595 15.7575 19.9181 16.3391 20.0172C16.9206 20.1163 17.5183 20.0521 18.0655 19.8317C18.6127 19.6113 19.088 19.2434 19.4386 18.7688C19.7891 18.2943 20.001 17.7318 20.0508 17.144C20.1005 16.5561 19.9862 15.966 19.7205 15.4393C19.4547 14.9126 19.0481 14.4699 18.5457 14.1607C18.0433 13.8514 17.4649 13.6876 16.875 13.6875ZM7.125 18.9375C6.71708 18.9375 6.31831 18.8166 5.97914 18.5899C5.63996 18.3633 5.3756 18.0412 5.2195 17.6643C5.06339 17.2874 5.02255 16.8727 5.10213 16.4726C5.18171 16.0726 5.37815 15.7051 5.66659 15.4166C5.95504 15.1282 6.32254 14.9317 6.72263 14.8522C7.12271 14.7726 7.53741 14.8134 7.91428 14.9695C8.29116 15.1256 8.61328 15.39 8.83991 15.7292C9.06654 16.0683 9.1875 16.4671 9.1875 16.875C9.1875 17.1459 9.13415 17.4141 9.0305 17.6643C8.92685 17.9145 8.77493 18.1419 8.58341 18.3334C8.39189 18.525 8.16452 18.6769 7.91428 18.7805C7.66405 18.8842 7.39585 18.9375 7.125 18.9375ZM16.875 18.9375C16.4671 18.9375 16.0683 18.8166 15.7291 18.5899C15.39 18.3633 15.1256 18.0412 14.9695 17.6643C14.8134 17.2874 14.7725 16.8727 14.8521 16.4726C14.9317 16.0726 15.1281 15.7051 15.4166 15.4166C15.705 15.1282 16.0725 14.9317 16.4726 14.8522C16.8727 14.7726 17.2874 14.8134 17.6643 14.9695C18.0412 15.1256 18.3633 15.39 18.5899 15.7292C18.8165 16.0683 18.9375 16.4671 18.9375 16.875C18.9375 17.422 18.7202 17.9466 18.3334 18.3334C17.9466 18.7202 17.422 18.9375 16.875 18.9375Z" fill="#05849A"/>
</svg>
