<svg width="24" height="24" viewBox="0 0 24 24" fill="none" xmlns="http://www.w3.org/2000/svg">
<path d="M2.25 21H21.75" stroke="#475467" stroke-width="1.5" stroke-linecap="round" stroke-linejoin="round"/>
<path d="M5.25 21V3.75C5.25 3.55109 5.32902 3.36032 5.46967 3.21967C5.61032 3.07902 5.80109 3 6 3H18C18.1989 3 18.3897 3.07902 18.5303 3.21967C18.671 3.36032 18.75 3.55109 18.75 3.75V21" stroke="#475467" stroke-width="1.5" stroke-linecap="round" stroke-linejoin="round"/>
<path d="M12.375 13.3125C12.8928 13.3125 13.3125 12.8928 13.3125 12.375C13.3125 11.8572 12.8928 11.4375 12.375 11.4375C11.8572 11.4375 11.4375 11.8572 11.4375 12.375C11.4375 12.8928 11.8572 13.3125 12.375 13.3125Z" fill="#475467"/>
<path d="M15.75 3V21" stroke="#475467" stroke-width="1.5" stroke-linecap="round" stroke-linejoin="round"/>
</svg>
