<svg width="24" height="24" viewBox="0 0 24 24" fill="none" xmlns="http://www.w3.org/2000/svg">
<path d="M23.0137 11.7722C22.9819 11.6991 22.2019 9.96938 20.46 8.2275C18.8437 6.61313 16.0669 4.6875 12 4.6875C7.93311 4.6875 5.15623 6.61313 3.53998 8.2275C1.79811 9.96938 1.01811 11.6962 0.986235 11.7722C0.954184 11.8442 0.937622 11.9221 0.937622 12.0009C0.937622 12.0798 0.954184 12.1577 0.986235 12.2297C1.01811 12.3019 1.79811 14.0316 3.53998 15.7734C5.15623 17.3878 7.93311 19.3125 12 19.3125C16.0669 19.3125 18.8437 17.3878 20.46 15.7734C22.2019 14.0316 22.9819 12.3047 23.0137 12.2297C23.0458 12.1577 23.0623 12.0798 23.0623 12.0009C23.0623 11.9221 23.0458 11.8442 23.0137 11.7722ZM12 18.1875C9.05811 18.1875 6.48936 17.1169 4.36405 15.0066C3.47312 14.1211 2.7192 13.1078 2.12717 12C2.71903 10.8924 3.47297 9.87932 4.36405 8.99438C6.48936 6.88313 9.05811 5.8125 12 5.8125C14.9419 5.8125 17.5106 6.88313 19.6359 8.99438C20.527 9.87932 21.2809 10.8924 21.8728 12C21.2756 13.1447 18.2812 18.1875 12 18.1875ZM12 7.6875C11.1471 7.6875 10.3133 7.94042 9.60409 8.41429C8.8949 8.88815 8.34216 9.56167 8.01575 10.3497C7.68935 11.1377 7.60395 12.0048 7.77035 12.8413C7.93675 13.6779 8.34747 14.4463 8.95059 15.0494C9.5537 15.6525 10.3221 16.0632 11.1587 16.2296C11.9952 16.396 12.8623 16.3106 13.6503 15.9842C14.4383 15.6578 15.1118 15.1051 15.5857 14.3959C16.0596 13.6867 16.3125 12.8529 16.3125 12C16.311 10.8567 15.8562 9.76067 15.0477 8.95225C14.2393 8.14382 13.1433 7.68899 12 7.6875ZM12 15.1875C11.3696 15.1875 10.7533 15.0006 10.2291 14.6503C9.70492 14.3001 9.29637 13.8022 9.05512 13.2198C8.81387 12.6374 8.75074 11.9965 8.87373 11.3781C8.99672 10.7598 9.3003 10.1919 9.74608 9.7461C10.1919 9.30032 10.7598 8.99674 11.3781 8.87375C11.9964 8.75076 12.6373 8.81388 13.2198 9.05513C13.8022 9.29639 14.3 9.70494 14.6503 10.2291C15.0005 10.7533 15.1875 11.3696 15.1875 12C15.1875 12.8454 14.8517 13.6561 14.2539 14.2539C13.6561 14.8517 12.8454 15.1875 12 15.1875Z" fill="#667085"/>
</svg>
