<svg width="33" height="32" viewBox="0 0 33 32" fill="none" xmlns="http://www.w3.org/2000/svg">
<path d="M13.5 26.9998V18.9998H19.5V26.9998H27.5V14.9998C27.5001 14.8684 27.4743 14.7384 27.4241 14.617C27.3739 14.4956 27.3003 14.3852 27.2075 14.2923L17.2075 4.29231C17.1146 4.19933 17.0043 4.12557 16.8829 4.07525C16.7615 4.02493 16.6314 3.99902 16.5 3.99902C16.3686 3.99902 16.2385 4.02493 16.1171 4.07525C15.9957 4.12557 15.8854 4.19933 15.7925 4.29231L5.7925 14.2923C5.69967 14.3852 5.62605 14.4956 5.57586 14.617C5.52568 14.7384 5.4999 14.8684 5.5 14.9998V26.9998H13.5Z" stroke="#98A2B3" stroke-width="1.5" stroke-linecap="round" stroke-linejoin="round"/>
</svg>
