<svg width="33" height="32" viewBox="0 0 33 32" fill="none" xmlns="http://www.w3.org/2000/svg">
<path d="M12.5 28H20.5" stroke="#98A2B3" stroke-width="1.5" stroke-linecap="round" stroke-linejoin="round"/>
<path d="M7.50003 13C7.50003 10.6131 8.44824 8.32387 10.1361 6.63604C11.8239 4.94821 14.1131 4 16.5 4C18.887 4 21.1762 4.94821 22.864 6.63604C24.5518 8.32387 25.5 10.6131 25.5 13C25.5 17.4775 26.5375 21.075 27.3625 22.5C27.4501 22.6518 27.4963 22.8239 27.4965 22.9991C27.4967 23.1744 27.4508 23.3466 27.3634 23.4985C27.2761 23.6504 27.1503 23.7767 26.9988 23.8647C26.8473 23.9527 26.6753 23.9994 26.5 24H6.50003C6.325 23.9989 6.15332 23.952 6.00214 23.8638C5.85095 23.7756 5.72557 23.6492 5.63851 23.4974C5.55146 23.3456 5.50578 23.1735 5.50604 22.9985C5.50631 22.8235 5.55251 22.6516 5.64003 22.5C6.46378 21.075 7.50003 17.4763 7.50003 13Z" stroke="#98A2B3" stroke-width="1.5" stroke-linecap="round" stroke-linejoin="round"/>
</svg>
