<svg width="33" height="32" viewBox="0 0 33 32" fill="none" xmlns="http://www.w3.org/2000/svg">
<path d="M13.5 6H7.5C6.94772 6 6.5 6.44772 6.5 7V13C6.5 13.5523 6.94772 14 7.5 14H13.5C14.0523 14 14.5 13.5523 14.5 13V7C14.5 6.44772 14.0523 6 13.5 6Z" stroke="#98A2B3" stroke-width="1.5" stroke-linecap="round" stroke-linejoin="round"/>
<path d="M25.5 6H19.5C18.9477 6 18.5 6.44772 18.5 7V13C18.5 13.5523 18.9477 14 19.5 14H25.5C26.0523 14 26.5 13.5523 26.5 13V7C26.5 6.44772 26.0523 6 25.5 6Z" stroke="#98A2B3" stroke-width="1.5" stroke-linecap="round" stroke-linejoin="round"/>
<path d="M13.5 18H7.5C6.94772 18 6.5 18.4477 6.5 19V25C6.5 25.5523 6.94772 26 7.5 26H13.5C14.0523 26 14.5 25.5523 14.5 25V19C14.5 18.4477 14.0523 18 13.5 18Z" stroke="#98A2B3" stroke-width="1.5" stroke-linecap="round" stroke-linejoin="round"/>
<path d="M25.5 18H19.5C18.9477 18 18.5 18.4477 18.5 19V25C18.5 25.5523 18.9477 26 19.5 26H25.5C26.0523 26 26.5 25.5523 26.5 25V19C26.5 18.4477 26.0523 18 25.5 18Z" stroke="#98A2B3" stroke-width="1.5" stroke-linecap="round" stroke-linejoin="round"/>
</svg>
