<svg width="28" height="28" viewBox="0 0 28 28" fill="none" xmlns="http://www.w3.org/2000/svg">
<path d="M11.375 11.375C12.8247 11.375 14 10.1997 14 8.75C14 7.30025 12.8247 6.125 11.375 6.125C9.92525 6.125 8.75 7.30025 8.75 8.75C8.75 10.1997 9.92525 11.375 11.375 11.375Z" stroke="#475467" stroke-width="1.5" stroke-linecap="round" stroke-linejoin="round"/>
<path d="M18.375 21.875C19.8247 21.875 21 20.6997 21 19.25C21 17.8003 19.8247 16.625 18.375 16.625C16.9253 16.625 15.75 17.8003 15.75 19.25C15.75 20.6997 16.9253 21.875 18.375 21.875Z" stroke="#475467" stroke-width="1.5" stroke-linecap="round" stroke-linejoin="round"/>
<path d="M14 8.75H23.625" stroke="#475467" stroke-width="1.5" stroke-linecap="round" stroke-linejoin="round"/>
<path d="M4.375 8.75H8.75" stroke="#475467" stroke-width="1.5" stroke-linecap="round" stroke-linejoin="round"/>
<path d="M21 19.25H23.625" stroke="#475467" stroke-width="1.5" stroke-linecap="round" stroke-linejoin="round"/>
<path d="M4.375 19.25H15.75" stroke="#475467" stroke-width="1.5" stroke-linecap="round" stroke-linejoin="round"/>
</svg>
