<svg width="24" height="18" viewBox="0 0 24 18" fill="none" xmlns="http://www.w3.org/2000/svg">
<path d="M4.91623 0.374987C4.81326 0.279405 4.67824 0.225821 4.53775 0.224778C4.39725 0.223734 4.26145 0.275306 4.15707 0.369346C4.05268 0.463387 3.98727 0.593088 3.9737 0.73293C3.96013 0.872771 3.99938 1.01263 4.08374 1.12499L6.04124 3.28124C2.54624 5.33436 1.05092 8.62499 0.986235 8.77217C0.954184 8.84418 0.937622 8.92211 0.937622 9.00092C0.937622 9.07974 0.954184 9.15767 0.986235 9.22967C1.01811 9.30186 1.79811 11.0315 3.53998 12.7734C5.15623 14.3878 7.93311 16.3125 12 16.3125C13.6999 16.3228 15.3816 15.9629 16.9284 15.2578L19.0847 17.6287C19.1851 17.7391 19.3253 17.8051 19.4744 17.8121C19.6235 17.8192 19.7693 17.7667 19.8797 17.6662C19.9901 17.5658 20.056 17.4256 20.0631 17.2765C20.0701 17.1274 20.0176 16.9816 19.9172 16.8712L4.91623 0.374987ZM9.47436 7.06124L13.6931 11.7037C13.0597 12.0995 12.3075 12.2603 11.5676 12.1581C10.8278 12.0558 10.1473 11.697 9.64502 11.1442C9.14273 10.5915 8.85048 9.87991 8.81929 9.13369C8.7881 8.38746 9.01995 7.65397 9.47436 7.06124ZM12 15.1875C9.05811 15.1875 6.48936 14.1169 4.36405 12.0065C3.47291 11.1213 2.71897 10.1079 2.12717 8.99999C2.52936 8.23124 4.01155 5.70186 6.81467 4.13342L8.70842 6.21561C8.03419 7.01457 7.67313 8.03124 7.69242 9.07649C7.71171 10.1217 8.11004 11.1244 8.8133 11.8979C9.51656 12.6715 10.4769 13.1632 11.5156 13.2816C12.5543 13.4001 13.6006 13.1372 14.46 12.5419L16.1297 14.3794C14.8207 14.921 13.4166 15.1958 12 15.1875ZM12.6 5.86874C12.4534 5.84076 12.324 5.75571 12.2401 5.63229C12.1562 5.50887 12.1248 5.35719 12.1528 5.21061C12.1808 5.06404 12.2658 4.93458 12.3892 4.85072C12.5127 4.76685 12.6643 4.73545 12.8109 4.76342C13.7269 4.94137 14.5608 5.41053 15.1884 6.101C15.8161 6.79146 16.2037 7.66625 16.2937 8.59499C16.3006 8.66855 16.2929 8.74274 16.271 8.81332C16.2492 8.8839 16.2137 8.94948 16.1665 9.00633C16.1193 9.06318 16.0614 9.11018 15.996 9.14464C15.9307 9.1791 15.8592 9.20035 15.7856 9.20717H15.7331C15.5924 9.20777 15.4567 9.15563 15.3525 9.06105C15.2484 8.96647 15.1835 8.83631 15.1706 8.69624C15.1038 8.01096 14.8174 7.36558 14.3543 6.85612C13.8911 6.34667 13.2758 6.00036 12.6 5.86874ZM23.0137 9.22967C22.9753 9.31592 22.0415 11.3859 19.9331 13.2722C19.8784 13.3234 19.814 13.3632 19.7437 13.3893C19.6734 13.4153 19.5986 13.427 19.5238 13.4237C19.4489 13.4204 19.3754 13.4022 19.3077 13.3701C19.2399 13.338 19.1793 13.2927 19.1293 13.2369C19.0793 13.181 19.041 13.1157 19.0166 13.0448C18.9922 12.974 18.9822 12.8989 18.9872 12.8241C18.9922 12.7493 19.0121 12.6763 19.0458 12.6093C19.0794 12.5423 19.1261 12.4827 19.1831 12.434C20.273 11.4549 21.1832 10.2927 21.8728 8.99999C21.2809 7.89211 20.527 6.87876 19.6359 5.99342C17.5106 3.88311 14.9419 2.81249 12 2.81249C11.3816 2.81175 10.7642 2.86192 10.154 2.96249C10.0806 2.97634 10.0051 2.9754 9.93199 2.95974C9.85889 2.94407 9.78965 2.91399 9.7283 2.87126C9.66696 2.82852 9.61476 2.77399 9.57473 2.71084C9.53471 2.64769 9.50768 2.5772 9.49522 2.50349C9.48276 2.42977 9.48512 2.35432 9.50215 2.28152C9.51919 2.20873 9.55057 2.14006 9.59445 2.07954C9.63834 2.01901 9.69385 1.96784 9.75774 1.92902C9.82162 1.89019 9.89261 1.8645 9.96655 1.85342C10.6386 1.74186 11.3187 1.68636 12 1.68749C16.0669 1.68749 18.8437 3.61311 20.46 5.22749C22.2019 6.96936 22.9819 8.69624 23.0137 8.77217C23.0458 8.84418 23.0623 8.92211 23.0623 9.00092C23.0623 9.07974 23.0458 9.15767 23.0137 9.22967Z" fill="#667085"/>
</svg>
